<?xml version="1.0" encoding="UTF-8" standalone="no"?>
<!DOCTYPE svg PUBLIC "-//W3C//DTD SVG 1.1//EN" "http://www.w3.org/Graphics/SVG/1.1/DTD/svg11.dtd">
<svg version="1.1" xmlns="http://www.w3.org/2000/svg" xmlns:xlink="http://www.w3.org/1999/xlink" preserveAspectRatio="xMidYMid meet" viewBox="0 0 640 640" width="640" height="640"><defs><path d="M114.06 333.66L120.99 325.74L130.89 333.66L140.79 325.74L148.71 333.66L156.63 325.74L162.57 333.66C167.29 333.66 170.24 333.66 171.41 333.66C175.28 333.66 178.42 330.53 178.42 326.66C178.42 308.46 178.42 280.95 178.42 267.77C178.42 249.51 164.63 234.19 146.47 232.28C145.71 232.2 143.82 232 140.79 231.68C138.35 231.95 136.83 232.11 136.22 232.18C117.98 234.15 104.16 249.55 104.16 267.89C104.16 276.66 104.16 298.58 104.16 333.66L114.06 333.66Z" id="adP8I13BJ"></path><path d="M111.58 305.37L127.32 306.93L142.56 303.81L157.79 306.93L170.99 303.81L170.99 297.56C167.82 296.81 165.84 296.34 165.04 296.15C160.26 295.02 155.3 294.95 150.49 295.93C148.9 296.26 151.93 295.63 150.47 295.93C145.25 297.01 139.86 297.01 134.64 295.93C133.18 295.63 139.96 297.03 139.31 296.89C131.4 295.27 123.24 295.24 115.32 296.82C114.82 296.91 113.58 297.16 111.58 297.56L111.58 305.37Z" id="b2LewneIs"></path><path d="M136.17 265.43C136.17 273.8 130.42 280.6 123.34 280.6C116.25 280.6 110.5 273.8 110.5 265.43C110.5 257.06 116.25 250.27 123.34 250.27C130.42 250.27 136.17 257.06 136.17 265.43Z" id="b43n3OJFk1"></path><path d="M167.84 265.43C167.84 273.8 162.09 280.6 155 280.6C147.92 280.6 142.17 273.8 142.17 265.43C142.17 257.06 147.92 250.27 155 250.27C162.09 250.27 167.84 257.06 167.84 265.43Z" id="b2rYILBZbb"></path></defs><g><g><g><g><use xlink:href="#adP8I13BJ" opacity="1" fill="#092b84" fill-opacity="0.74"></use><g><use xlink:href="#adP8I13BJ" opacity="1" fill-opacity="0" stroke="#ffffff" stroke-width="1" stroke-opacity="1"></use></g></g><g><use xlink:href="#b2LewneIs" opacity="1" fill="#ffffff" fill-opacity="1"></use><g><use xlink:href="#b2LewneIs" opacity="1" fill-opacity="0" stroke="#ffffff" stroke-width="1" stroke-opacity="1"></use></g></g><g><use xlink:href="#b43n3OJFk1" opacity="1" fill="#ffffff" fill-opacity="1"></use></g><g><use xlink:href="#b2rYILBZbb" opacity="1" fill="#ffffff" fill-opacity="1"></use></g></g></g></g></svg>